<svg t="1783141217023" class="icon" viewBox="0 0 1024 1024" version="1.1" xmlns="http://www.w3.org/2000/svg" p-id="5272" width="48" height="48"><path d="M1024 512c0 282.733714-229.266286 512-512 512S0 794.733714 0 512 229.266286 0 512 0s512 229.266286 512 512z m-629.723429 291.766857c-122.550857-44.873143-210.249143-162.706286-210.249142-300.617143 0-137.910857 87.698286-255.670857 210.249142-300.617143 7.643429-2.742857 13.750857-12.032 13.750858-20.150857v-29.842285c0-12.068571-9.435429-18.907429-20.992-15.250286C232.155429 186.843429 119.990857 331.922286 119.990857 503.222857c0 171.337143 112.164571 316.379429 267.044572 365.897143 11.556571 3.657143 20.992-3.181714 20.992-15.286857v-29.842286a23.113143 23.113143 0 0 0-13.750858-20.224z m226.742858-666.404571c-11.556571-3.657143-20.955429 3.181714-20.955429 15.286857v29.805714c0 8.118857 6.070857 17.408 13.714286 20.150857 122.550857 44.873143 210.285714 162.742857 210.285714 300.617143 0 137.910857-87.734857 255.670857-210.285714 300.617143a21.394286 21.394286 0 0 0-13.714286 20.150857v29.842286c0 12.105143 9.398857 18.944 20.955429 15.286857 154.916571-49.517714 267.044571-194.56 267.044571-365.897143 0-171.300571-112.237714-316.342857-267.044571-365.860571z m23.332571 441.965714c0-74.752-45.494857-99.949714-133.449143-111.981714-64.841143-9.435429-77.458286-24.649143-77.458286-54.930286 0-28.781714 21.942857-49.188571 64.365715-49.188571 38.4 0 60.379429 13.421714 69.485714 44.214857a16.128 16.128 0 0 0 15.36 11.776h33.645714a14.921143 14.921143 0 0 0 14.738286-17.773715c-10.678857-48.786286-43.52-78.043429-95.012571-87.222857V263.314286a15.981714 15.981714 0 0 0-16.018286-16.018286h-32.036572a15.981714 15.981714 0 0 0-15.981714 16.018286v49.554285c-63.488 9.033143-104.448 51.2-104.448 105.435429 0 70.107429 42.349714 97.28 131.84 109.275429 60.708571 9.947429 77.897143 23.04 77.897143 57.563428 0 34.523429-29.330286 57.526857-70.582857 57.526857-55.844571 0-74.313143-24.466286-81.042286-56.064a16.237714 16.237714 0 0 0-15.689143-13.019428h-36.498285a14.921143 14.921143 0 0 0-14.774858 17.334857c9.252571 53.211429 43.483429 92.306286 113.298286 101.814857v50.541714a15.981714 15.981714 0 0 0 15.981714 16.018286h32.036572a15.981714 15.981714 0 0 0 16.018286-16.018286v-50.541714c66.048-10.496 108.324571-56.466286 108.324571-113.371429z" fill="#1296DB" p-id="5273"></path></svg>
