<svg t="1783141266860" class="icon" viewBox="0 0 1294 1024" version="1.1" xmlns="http://www.w3.org/2000/svg" p-id="10887" width="48" height="48"><path d="M1078.019167 13.059293a23.502026 23.502026 0 0 0-21.412957-13.056682H237.168892a23.502026 23.502026 0 0 0-21.412958 13.056682L3.193163 403.715197a24.024294 24.024294 0 0 0 4.700405 29.769233l622.020297 583.894788a25.068828 25.068828 0 0 0 33.947371 0L1285.881533 433.48443a24.546561 24.546561 0 0 0 4.700406-29.769233z m0 0" fill="#19986F" p-id="10888"></path><path d="M884.258017 178.618011H407.428016v114.898796h180.704469v169.21459h115.421062V293.516807h180.70447z m0 0" fill="#FFFFFF" p-id="10889"></path><path d="M951.108225 436.618034c0-37.603242-136.311753-68.41701-303.959541-68.41701s-303.959541 30.813768-303.95954 68.41701 104.45345 60.583001 244.943341 66.850208v242.854272h115.421062V503.468242c140.489891-5.74494 247.554677-33.425104 247.554678-66.850208z m-304.481808 43.870449c-149.368434 0-270.534436-23.502026-270.534436-52.226725s121.166002-52.226725 270.534436-52.226725 271.056704 24.024294 271.056704 52.226725-121.166002 52.226725-271.056704 52.226725z m0 0" fill="#FFFFFF" p-id="10890"></path></svg>
